HIERARCHY
ROOT Hips
{
  OFFSET 54.7565 96.7482 58.5433
  CHANNELS 6 Xposition Yposition Zposition Zrotation Xrotation Yrotation
  JOINT spine
  {
    OFFSET 0 8.1325 0.467659
    CHANNELS 3 Zrotation Xrotation Yrotation
    JOINT spine1
    {
      OFFSET 0 10.3498 0
      CHANNELS 3 Zrotation Xrotation Yrotation
      JOINT spine2
      {
        OFFSET 0 9.91699 0
        CHANNELS 3 Zrotation Xrotation Yrotation
        JOINT Neck
        {
          OFFSET 0 25.461 1.2139
          CHANNELS 3 Zrotation Xrotation Yrotation
          JOINT Head
          {
            OFFSET 0 7.69245 0
            CHANNELS 3 Zrotation Xrotation Yrotation
            End Site
            {
              OFFSET 0 18.62 -6.14063
            }
          }
        }
        JOINT RightShoulder
        {
          OFFSET -4.17575 10.7096 -0.581445
          CHANNELS 3 Zrotation Xrotation Yrotation
          JOINT RightArm
          {
            OFFSET 0 14.0466 0
            CHANNELS 3 Zrotation Xrotation Yrotation
            JOINT RightArmRoll
            {
              OFFSET 0 7.09099 0
              CHANNELS 3 Zrotation Xrotation Yrotation
              JOINT RightForeArm
              {
                OFFSET 0 20.6535 0
                CHANNELS 3 Zrotation Xrotation Yrotation
                JOINT RightForeArmRoll
                {
                  OFFSET 0 7.95718 0
                  CHANNELS 3 Zrotation Xrotation Yrotation
                  JOINT RightHand
                  {
                    OFFSET 0 15.9683 0
                    CHANNELS 3 Zrotation Xrotation Yrotation
                    End Site
                    {
                      OFFSET 0 0 0
                    }
                  }
                }
              }
            }
          }
        }
        JOINT LeftShoulder
        {
          OFFSET 4.17575 10.7096 -0.581445
          CHANNELS 3 Zrotation Xrotation Yrotation
          JOINT LeftArm
          {
            OFFSET 0 14.0466 0
            CHANNELS 3 Zrotation Xrotation Yrotation
            JOINT LeftArmRoll
            {
              OFFSET 0 7.09098 0
              CHANNELS 3 Zrotation Xrotation Yrotation
              JOINT LeftForeArm
              {
                OFFSET 0 20.6535 0
                CHANNELS 3 Zrotation Xrotation Yrotation
                JOINT LeftForeArmRoll
                {
                  OFFSET 0 7.95718 0
                  CHANNELS 3 Zrotation Xrotation Yrotation
                  JOINT LeftHand
                  {
                    OFFSET 0 15.9683 0
                    CHANNELS 3 Zrotation Xrotation Yrotation
                    End Site
                    {
                      OFFSET 0 0 0
                    }
                  }
                }
              }
            }
          }
        }
      }
    }
  }
  JOINT RightUpLeg
  {
    OFFSET -7.20834 -1.32182 -1.10884
    CHANNELS 3 Zrotation Xrotation Yrotation
    JOINT RightUpLegRoll
    {
      OFFSET 0 18.7238 0
      CHANNELS 3 Zrotation Xrotation Yrotation
      JOINT RightLeg
      {
        OFFSET 0 -23.1866 0
        CHANNELS 3 Zrotation Xrotation Yrotation
        JOINT RightLegRoll
        {
          OFFSET 0 23.2624 0
          CHANNELS 3 Zrotation Xrotation Yrotation
          JOINT RightFoot
          {
            OFFSET 0 19.3621 0
            CHANNELS 3 Zrotation Xrotation Yrotation
            JOINT RightToeBase
            {
              OFFSET 0 16.1857 0
              CHANNELS 3 Zrotation Xrotation Yrotation
              End Site
              {
                OFFSET 0.00686052 7.83862 -0.903522
              }
            }
          }
        }
      }
    }
  }
  JOINT LeftUpLeg
  {
    OFFSET 7.20834 -1.32182 -1.10884
    CHANNELS 3 Zrotation Xrotation Yrotation
    JOINT LeftUpLegRoll
    {
      OFFSET 0 18.7239 0
      CHANNELS 3 Zrotation Xrotation Yrotation
      JOINT LeftLeg
      {
        OFFSET 0 23.1865 0
        CHANNELS 3 Zrotation Xrotation Yrotation
        JOINT LeftLegRoll
        {
          OFFSET 0 23.4775 0
          CHANNELS 3 Zrotation Xrotation Yrotation
          JOINT LeftFoot
          {
            OFFSET 0 19.147 0
            CHANNELS 3 Zrotation Xrotation Yrotation
            JOINT LeftToeBase
            {
              OFFSET 0 16.1857 0
              CHANNELS 3 Zrotation Xrotation Yrotation
              End Site
              {
                OFFSET -0.0307459 7.83862 -0.903522
              }
            }
          }
        }
      }
    }
  }
}
MOTION
Frames: 11
Frame Time: 0.00208333
54.6617 61.9208 19.9783 0.338448 32.0942 -0.543109 0.954825 2.91296 -0.122188 1.93899 9.8246 -0.409195 1.95031 11.4691 -0.443259 -10.3604 -22.5749 -6.23317 4.96668 1.34005 -5.31337 39.621 -12.9678 -8.80517 117.703 18.0462 -54.8101 4.77019e-007 -4.31253e-006 -1.74317e-006 -147.37 80.7452 135.64 -5.29864e-006 -4.04372e-006 -3.01221 8.02891 -4.9513 0.697627 -54.2569 -10.0047 6.20612 -112.052 19.5705 47.8119 7.37468e-006 -6.43428e-007 7.61291e-006 77.6276 81.9583 -70.0045 5.80077e-006 1.30372e-005 3.00732 -8.02893 -4.95159 -0.697758 33.3667 65.8304 151.523 180 1.52579e-005 179.371 153.448 79.4613 -160.796 5.64923e-006 1.254e-006 1.66074 -21.7864 66.4561 18.1997 8.13649 25.2327 -3.48773 -27.2063 67.1602 -156.784 4.54188e-006 -4.6773e-006 -0.736389 -10.9928 -79.9798 -5.93215 -1.60676e-006 -2.56942e-006 -1.96586 18.1998 64.9523 -17.2082 -8.13653 25.2333 3.48692 
54.6575 62.0065 20.0533 0.343362 32.2481 -0.52734 0.951739 2.90853 -0.121274 1.93325 9.81577 -0.406107 1.94451 11.4603 -0.440064 -10.3199 -22.7678 -6.26006 4.9175 1.39975 -5.33101 39.6034 -13.0034 -8.83813 117.673 18.1051 -54.8994 4.77019e-007 -4.31253e-006 -1.74317e-006 -147.229 80.8037 135.543 -5.29864e-006 -4.04372e-006 -3.01221 8.02891 -4.9513 0.697627 -54.1863 -10.0018 6.20383 -112.066 19.6083 47.9153 7.37468e-006 -6.43428e-007 7.61291e-006 77.2561 81.9438 -69.6559 5.80077e-006 1.30372e-005 3.00732 -8.02893 -4.95159 -0.697758 33.3649 65.8318 151.529 180 1.52579e-005 179.372 153.447 79.352 -160.826 5.64923e-006 1.254e-006 1.65799 -21.8048 66.4351 18.1815 8.13649 25.2327 -3.48773 -27.1875 67.1578 -156.809 4.54188e-006 -4.6773e-006 -0.734566 -11.1569 -79.9099 -6.06144 -1.60676e-006 -2.56942e-006 -1.96118 18.2595 65.0278 -17.2586 -8.13653 25.2333 3.48692 
54.6126 62.1353 20.0223 0.347892 32.3994 -0.511497 0.948683 2.90415 -0.120358 1.92759 9.80704 -0.403011 1.93879 11.4516 -0.436863 -10.278 -22.962 -6.28675 4.86696 1.46255 -5.34868 39.5893 -13.0383 -8.87033 117.642 18.168 -54.9866 4.77019e-007 -4.31253e-006 -1.74317e-006 -147.084 80.8668 135.444 -5.29864e-006 -4.04372e-006 -3.01221 8.02891 -4.9513 0.697627 -54.1175 -9.99809 6.20101 -112.08 19.6496 48.0148 7.37468e-006 -6.43428e-007 7.61291e-006 76.8509 81.9306 -69.2765 5.80077e-006 1.30372e-005 3.00732 -8.02893 -4.95159 -0.697758 33.368 65.8371 151.53 180 1.52579e-005 179.372 153.45 79.2414 -160.858 5.64923e-006 1.254e-006 1.65517 -21.8227 66.4141 18.1634 8.13649 25.2327 -3.48773 -27.1763 67.1586 -156.828 4.54188e-006 -4.6773e-006 -0.732808 -11.3244 -79.838 -6.19304 -1.60676e-006 -2.56942e-006 -1.9565 18.3214 65.1033 -17.3091 -8.13653 25.2333 3.48692 
54.6146 62.221 20.1106 0.351976 32.5481 -0.495761 0.945675 2.8998 -0.119444 1.92204 9.79837 -0.399938 1.93317 11.4429 -0.433686 -10.2353 -23.1568 -6.31321 4.81575 1.52759 -5.36626 39.5779 -13.0717 -8.90116 117.612 18.2342 -55.0703 4.77019e-007 -4.31253e-006 -1.74317e-006 -146.934 80.9348 135.345 -5.29864e-006 -4.04372e-006 -3.01221 8.02891 -4.9513 0.697627 -54.0513 -9.99375 6.19778 -112.093 19.6942 48.11 7.37468e-006 -6.43428e-007 7.61291e-006 76.4126 81.9184 -68.867 5.80077e-006 1.30372e-005 3.00732 -8.02893 -4.95159 -0.697758 33.3753 65.8461 151.525 180 1.52579e-005 179.373 153.456 79.1301 -160.895 5.64923e-006 1.254e-006 1.65221 -21.8398 66.3942 18.1462 8.13649 25.2327 -3.48773 -27.1725 67.1628 -156.84 4.54188e-006 -4.6773e-006 -0.73107 -11.4931 -79.764 -6.32529 -1.60676e-006 -2.56942e-006 -1.95177 18.3847 65.1784 -17.3596 -8.13653 25.2333 3.48692 
54.626 62.3125 20.2109 0.355556 32.6942 -0.480317 0.942731 2.89545 -0.118536 1.9166 9.78971 -0.396916 1.92767 11.4343 -0.430563 -10.1926 -23.3513 -6.3394 4.76456 1.594 -5.38366 39.5685 -13.1029 -8.93 117.585 18.3031 -55.1492 4.77019e-007 -4.31253e-006 -1.74317e-006 -146.78 81.0081 135.245 -5.29864e-006 -4.04372e-006 -3.01221 8.02891 -4.9513 0.697627 -53.9884 -9.98895 6.19424 -112.105 19.7421 48.2007 7.37468e-006 -6.43428e-007 7.61291e-006 75.9418 81.9072 -68.4277 5.80077e-006 1.30372e-005 3.00732 -8.02893 -4.95159 -0.697758 33.3862 65.8588 151.515 180 1.52579e-005 179.374 153.468 79.0187 -160.936 5.64923e-006 1.254e-006 1.64903 -21.8556 66.3762 18.1306 8.13649 25.2327 -3.48773 -27.1755 67.17 -156.844 4.54188e-006 -4.6773e-006 -0.729307 -11.6612 -79.6877 -6.45658 -1.60676e-006 -2.56942e-006 -1.94696 18.4482 65.2528 -17.4099 -8.13653 25.2333 3.48692 
54.6169 62.4085 20.2795 0.358573 32.8375 -0.465351 0.939871 2.8911 -0.117636 1.9113 9.78102 -0.393976 1.92231 11.4256 -0.427524 -10.1506 -23.5445 -6.36529 4.71411 1.66093 -5.40077 39.5604 -13.1314 -8.95623 117.56 18.374 -55.2219 4.77019e-007 -4.31253e-006 -1.74317e-006 -146.621 81.0872 135.145 -5.29864e-006 -4.04372e-006 -3.01221 8.02891 -4.9513 0.697627 -53.9295 -9.98383 6.19052 -112.116 19.793 48.2863 7.37468e-006 -6.43428e-007 7.61291e-006 75.4392 81.8968 -67.9594 5.80077e-006 1.30372e-005 3.00732 -8.02893 -4.95159 -0.697758 33.4001 65.8752 151.5 180 1.52579e-005 179.374 153.486 78.9078 -160.981 5.64923e-006 1.254e-006 1.64554 -21.8697 66.3609 18.1174 8.13649 25.2327 -3.48773 -27.185 67.1803 -156.841 4.54188e-006 -4.6773e-006 -0.727474 -11.8267 -79.6091 -6.58534 -1.60676e-006 -2.56942e-006 -1.94203 18.5109 65.3264 -17.4597 -8.13653 25.2333 3.48692 
54.6059 62.5113 20.3545 0.360973 32.978 -0.451048 0.93711 2.88671 -0.116749 1.90616 9.77227 -0.391148 1.91712 11.4168 -0.4246 -10.1099 -23.7355 -6.39084 4.66509 1.72751 -5.4175 39.5528 -13.1563 -8.97924 117.54 18.4461 -55.287 4.77019e-007 -4.31253e-006 -1.74317e-006 -146.457 81.1725 135.046 -5.29864e-006 -4.04372e-006 -3.01221 8.02891 -4.9513 0.697627 -53.8752 -9.97858 6.18672 -112.124 19.847 48.3666 7.37468e-006 -6.43428e-007 7.61291e-006 74.9053 81.887 -67.4626 5.80077e-006 1.30372e-005 3.00732 -8.02893 -4.95159 -0.697758 33.4163 65.8952 151.479 180 1.52579e-005 179.375 153.511 78.7981 -161.032 5.64923e-006 1.254e-006 1.64168 -21.8817 66.3494 18.1073 8.13649 25.2327 -3.48773 -27.2006 67.1936 -156.829 4.54188e-006 -4.6773e-006 -0.725526 -11.9878 -79.5281 -6.71006 -1.60676e-006 -2.56942e-006 -1.93694 18.5718 65.3986 -17.5091 -8.13653 25.2333 3.48692 
54.6021 62.6075 20.4265 0.362702 33.1155 -0.437598 0.934466 2.88227 -0.115878 1.90119 9.76341 -0.388461 1.9121 11.408 -0.42182 -10.0713 -23.9236 -6.416 4.61818 1.79287 -5.43374 39.545 -13.1769 -8.9984 117.525 18.5189 -55.3431 4.77019e-007 -4.31253e-006 -1.74317e-006 -146.289 81.2642 134.947 -5.29864e-006 -4.04372e-006 -3.01221 8.02891 -4.9513 0.697627 -53.8263 -9.97334 6.18295 -112.131 19.9037 48.4413 7.37468e-006 -6.43428e-007 7.61291e-006 74.3407 81.8778 -66.9376 5.80077e-006 1.30372e-005 3.00732 -8.02893 -4.95159 -0.697758 33.4343 65.9188 151.453 180 1.52579e-005 179.376 153.544 78.6902 -161.089 5.64923e-006 1.254e-006 1.63736 -21.8913 66.3424 18.1011 8.13649 25.2327 -3.48773 -27.2218 67.2098 -156.809 4.54188e-006 -4.6773e-006 -0.723417 -12.1427 -79.4445 -6.82925 -1.60676e-006 -2.56942e-006 -1.93165 18.63 65.4693 -17.5577 -8.13653 25.2333 3.48692 
54.5814 62.7139 20.4985 0.36371 33.25 -0.425188 0.931956 2.87775 -0.115026 1.89643 9.75441 -0.385945 1.90728 11.399 -0.419215 -10.0355 -24.1078 -6.44074 4.57408 1.85617 -5.44937 39.5363 -13.1926 -9.01311 117.516 18.5916 -55.3889 4.77019e-007 -4.31253e-006 -1.74317e-006 -146.116 81.3629 134.848 -5.29864e-006 -4.04372e-006 -3.01221 8.02891 -4.9513 0.697627 -53.7834 -9.96829 6.17934 -112.134 19.9631 48.5099 7.37468e-006 -6.43428e-007 7.61291e-006 73.7461 81.8688 -66.3853 5.80077e-006 1.30372e-005 3.00732 -8.02893 -4.95159 -0.697758 33.4534 65.946 151.422 180 1.52579e-005 179.378 153.585 78.5847 -161.153 5.64923e-006 1.254e-006 1.6325 -21.8979 66.341 18.0994 8.13649 25.2327 -3.48773 -27.2485 67.2287 -156.78 4.54188e-006 -4.6773e-006 -0.721103 -12.2894 -79.3583 -6.94149 -1.60676e-006 -2.56942e-006 -1.92612 18.6843 65.5382 -17.6054 -8.13653 25.2333 3.48692 
54.5805 62.8129 20.5726 0.363948 33.3814 -0.414008 0.929598 2.87314 -0.114196 1.89188 9.74522 -0.383629 1.90268 11.3898 -0.416815 -10.003 -24.2871 -6.465 4.53349 1.91653 -5.46431 39.5259 -13.2027 -9.02274 117.516 18.6636 -55.4228 4.77019e-007 -4.31253e-006 -1.74317e-006 -145.939 81.469 134.751 -5.29864e-006 -4.04372e-006 -3.01221 8.02891 -4.9513 0.697627 -53.7473 -9.96359 6.17598 -112.135 20.0252 48.5721 7.37468e-006 -6.43428e-007 7.61291e-006 73.1222 81.8601 -65.8061 5.80077e-006 1.30372e-005 3.00732 -8.02893 -4.95159 -0.697758 33.473 65.9766 151.386 180 1.52579e-005 179.379 153.637 78.4823 -161.225 5.64923e-006 1.254e-006 1.62703 -21.9012 66.3459 18.1031 8.13649 25.2327 -3.48773 -27.28 67.2504 -156.741 4.54188e-006 -4.6773e-006 -0.718538 -12.4265 -79.2694 -7.0454 -1.60676e-006 -2.56942e-006 -1.92031 18.7337 65.6048 -17.6521 -8.13653 25.2333 3.48692 
54.5641 62.9157 20.6557 0.363367 33.5095 -0.40425 0.927409 2.86842 -0.113394 1.88756 9.73581 -0.381544 1.89832 11.3804 -0.41465 -9.97471 -24.4608 -6.48875 4.4971 1.97311 -5.47845 39.5131 -13.2065 -9.02668 117.524 18.7343 -55.4435 4.77019e-007 -4.31253e-006 -1.74317e-006 -145.756 81.5827 134.655 -5.29864e-006 -4.04372e-006 -3.01221 8.02891 -4.9513 0.697627 -53.7186 -9.95939 6.173 -112.131 20.0897 48.6275 7.37468e-006 -6.43428e-007 7.61291e-006 72.4696 81.8514 -65.2006 5.80077e-006 1.30372e-005 3.00732 -8.02893 -4.95159 -0.697758 33.4926 66.0106 151.345 180 1.52579e-005 179.381 153.699 78.3836 -161.304 5.64923e-006 1.254e-006 1.62086 -21.9008 66.3582 18.113 8.13649 25.2327 -3.48773 -27.3162 67.2747 -156.694 4.54188e-006 -4.6773e-006 -0.715677 -12.552 -79.1777 -7.13966 -1.60676e-006 -2.56942e-006 -1.91419 18.7772 65.6689 -17.6975 -8.13653 25.2333 3.48692 
